<?xml version="1.0" encoding="utf-8"?>
<!-- Uploaded to: SVG Repo, www.svgrepo.com, Generator: SVG Repo Mixer Tools -->
<svg width="800px" height="800px" viewBox="0 0 24 24" xmlns="http://www.w3.org/2000/svg" xmlns:xlink="http://www.w3.org/1999/xlink">
  <defs>
    <path id="paper-bag-a" d="M4,2 C3.44771525,2 3,1.55228475 3,1 C3,0.44771525 3.44771525,0 4,0 L7.3326416,0 C7.88492635,0 8.3326416,0.44771525 8.3326416,1 C8.3326416,1.55228475 7.88492635,2 7.3326416,2 L4,2 Z M0,9 L16,9 L16,14 L0,14 L0,9 Z"/>
    <path id="paper-bag-c" d="M16,16 L16,3 L14.2709351,4.73925781 L12.5,3 L10.6965942,4.73925781 L9,3 L7.05239868,4.73925781 L5.5,3 L3.84634399,4.73925781 L2,3 L2,16 L16,16 Z M16,18 L2,18 L2,21 L16,21 L16,18 Z M14.2928401,1.95752627 C14.6442855,1.38322579 15.2773892,1 16,1 C17.1045695,1 18,1.8954305 18,3 L18,21 C18,22.1045695 17.1045695,23 16,23 L2,23 C0.8954305,23 0,22.1045695 0,21 L0,3 C0,1.24683905 2.09523919,0.342086756 3.37136575,1.5441992 L3.76863737,1.91842944 L4.05056765,1.62190499 C4.85614561,0.774626141 6.21358391,0.795995622 6.9920927,1.66821197 L7.21236113,1.91499367 L7.66782865,1.50824952 C8.46616292,0.795316589 9.68428001,0.837276754 10.4316637,1.60345463 L10.7396347,1.91917001 L11.1116216,1.56041488 C11.891473,0.808303098 13.1284048,0.813919532 13.9013941,1.57308217 L14.2928401,1.95752627 Z M5,9 C4.44771525,9 4,8.55228475 4,8 C4,7.44771525 4.44771525,7 5,7 L8.3326416,7 C8.88492635,7 9.3326416,7.44771525 9.3326416,8 C9.3326416,8.55228475 8.88492635,9 8.3326416,9 L5,9 Z"/>
  </defs>
  <g fill="none" fill-rule="evenodd" transform="translate(3)">
    <g transform="translate(1 8)">
      <mask id="paper-bag-b" fill="#ffffff">
        <use xlink:href="#paper-bag-a"/>
      </mask>
      <use fill="#D8D8D8" fill-rule="nonzero" xlink:href="#paper-bag-a"/>
      <g fill="#FFA0A0" mask="url(#paper-bag-b)">
        <rect width="24" height="24" transform="translate(-4 -8)"/>
      </g>
    </g>
    <mask id="paper-bag-d" fill="#ffffff">
      <use xlink:href="#paper-bag-c"/>
    </mask>
    <use fill="#000000" fill-rule="nonzero" xlink:href="#paper-bag-c"/>
    <g fill="#7600FF" mask="url(#paper-bag-d)">
      <rect width="24" height="24" transform="translate(-3)"/>
    </g>
  </g>
</svg>