<?xml version="1.0" encoding="utf-8"?><!-- Uploaded to: SVG Repo, www.svgrepo.com, Generator: SVG Repo Mixer Tools -->
<svg version="1.1" id="designs" xmlns="http://www.w3.org/2000/svg" xmlns:xlink="http://www.w3.org/1999/xlink" 
	 width="800px" height="800px" viewBox="0 0 32 32" xml:space="preserve">
<style type="text/css">
	.scienceandfiction_twee{fill:#CC2954;}
	.scienceandfiction_een{fill:#2B4099;}
</style>
<path class="scienceandfiction_een" d="M23.73,20H27v1h-2.92c-0.79,0.63-1.78,0.99-2.83,0.99c-0.33,0-0.65-0.04-0.97-0.1
	c-1.2,1.3-2.89,2.1-4.76,2.1C14.27,23.99,13,23.63,12,23H6v-1h6.4c0.76,0.54,1.63,0.87,2.55,0.96c0.19,0.02,0.38,0.03,0.57,0.03
	c1.54,0,2.97-0.63,4.03-1.78l0.37-0.4l0.55,0.1c0.2,0.04,0.39,0.06,0.56,0.07c0.08,0.01,0.15,0.01,0.22,0.01
	C22.2,20.99,23.06,20.62,23.73,20z M6.15,18c-0.09-0.32-0.13-0.66-0.13-1.01c0-2.2,1.69-4,3.77-4c0.23,0,0.49,0.03,0.78,0.09
	l0.54,0.1l0.38-0.41c1.06-1.14,2.48-1.77,4.01-1.78c0.01,0,4.5,0,4.5,0V10c0,0-4.49,0-4.5,0c-1.86,0.01-3.54,0.79-4.75,2.09
	c-0.31-0.06-0.63-0.1-0.96-0.1c-2.63,0-4.77,2.24-4.77,5c0,0.35,0.03,0.68,0.1,1.01H2v1h4.53C6.36,18.69,6.23,18.36,6.15,18z
	 M25.92,16c-0.23-1.23-0.89-2.28-1.81-3H28v-1h-7v1h0.25c1.76,0,3.24,1.27,3.65,3h-1.65c-0.412-1.165-1.513-2-2.818-2
	c-0.473,0-0.926,0.116-1.339,0.323C18.554,13.522,17.64,13,16.604,13c-0.756,0-1.479,0.276-2.033,0.788l0.678,0.734
	C15.618,14.182,16.1,14,16.604,14c1.102,0,2,0.892,2,1.994h1c0-0.264-0.045-0.515-0.109-0.759c0.287-0.153,0.606-0.241,0.938-0.241
	c1.103,0,2,0.897,2,2L29,17v-1H25.92z"/>
<path class="scienceandfiction_twee" d="M16,27h-1v-1h1V27z M7,26H6v1h1V26z M14,26H8v1h6V26z M12,24H5v1h7V24z M4,24H3v1h1V24z
	 M31,10h-5v1h5V10z M25,10h-1v1h1V10z M29,18h-6v1h6V18z M22,18h-1v1h1V18z M31,22h-5v1h5V22z M25,22h-1v1h1V22z M31,18h-1v1h1V18z
	 M29,20h-1v1h1V20z M27,8h-1v1h1V8z M25,8h-7v1h7V8z M21,6h-1v1h1V6z M19,6h-7v1h7V6z M17,8h-1v1h1V8z M3,14H2v1h1V14z M11,14h-1v1
	h1V14z M12,18h-1v1h1V18z M9,14H4v1h5V14z M13,16h-3v1h3V16z M7,16H1v1h6V16z M9,16H8v1h1V16z M7,10H1v1h6V10z M9,10H8v1h1V10z
	 M14,20H7v1h7V20z M4,20H1v1h3V20z M6,20H5v1h1V20z M29,14h-2v1h2V14z"/>
</svg>