<?xml version="1.0" encoding="utf-8"?><!-- Uploaded to: SVG Repo, www.svgrepo.com, Generator: SVG Repo Mixer Tools -->
<svg version="1.1" id="designs" xmlns="http://www.w3.org/2000/svg" xmlns:xlink="http://www.w3.org/1999/xlink" 
	 width="800px" height="800px" viewBox="0 0 32 32" xml:space="preserve">
<style type="text/css">
	.scienceandfiction_twee{fill:#CC2954;}
	.scienceandfiction_een{fill:#2B4099;}
</style>
<path class="scienceandfiction_twee" d="M27.501,4c0.088,0,0.171,0.022,0.249,0.067c0.156,0.09,0.213,0.229,0.233,0.303
	c0.02,0.075,0.04,0.223-0.05,0.379C27.826,4.935,27.639,5,27.499,5c-0.088,0-0.171-0.022-0.249-0.067
	c-0.156-0.09-0.213-0.229-0.233-0.303c-0.02-0.075-0.04-0.223,0.05-0.379C27.157,4.093,27.32,4,27.501,4z M27.501,3
	c-0.518,0-1.023,0.269-1.3,0.75c-0.414,0.717-0.168,1.635,0.549,2.049C26.986,5.936,27.244,6,27.499,6c0.518,0,1.023-0.269,1.3-0.75
	c0.414-0.717,0.168-1.635-0.549-2.049C28.014,3.064,27.756,3,27.501,3L27.501,3z M13.501,29c0.088,0,0.171,0.022,0.249,0.067
	c0.156,0.09,0.213,0.229,0.233,0.303c0.02,0.075,0.04,0.223-0.05,0.379C13.826,29.935,13.639,30,13.499,30
	c-0.088,0-0.171-0.022-0.249-0.067c-0.156-0.09-0.213-0.229-0.233-0.303c-0.02-0.075-0.04-0.223,0.05-0.379
	C13.157,29.093,13.32,29,13.501,29z M13.501,28c-0.518,0-1.023,0.269-1.3,0.75c-0.414,0.717-0.168,1.635,0.549,2.049
	C12.986,30.936,13.244,31,13.499,31c0.518,0,1.023-0.269,1.3-0.75c0.414-0.717,0.168-1.635-0.549-2.049
	C14.014,28.064,13.756,28,13.501,28L13.501,28z M31,14h-1v1h1V14L31,14z M28,9h-1v1h1V9L28,9z M19,3h-1v1h1V3L19,3z M3,2H2v1h1V2
	L3,2z M3,12H2v1h1V12L3,12z M4,26H3v1h1V26L4,26z M25,1h-1v1h1V1L25,1z M11,4h-1v1h1V4L11,4z M29,20h-1v1h1V20L29,20z M26,30h-1v1h1
	V30L26,30z M5,7H4v1h1V7L5,7z M2,20H1v1h1V20L2,20z M28,26h-1v1h1V26L28,26z M7,29H6v1h1V29L7,29z M22,28h-1v1h1V28L22,28z"/>
<path class="scienceandfiction_een" d="M19.501,12c0.088,0,0.171,0.022,0.249,0.067c0.156,0.09,0.213,0.229,0.233,0.303
	c0.02,0.075,0.04,0.223-0.05,0.379C19.826,12.935,19.639,13,19.499,13c-0.088,0-0.171-0.022-0.249-0.067
	c-0.156-0.09-0.213-0.229-0.233-0.303c-0.02-0.075-0.04-0.223,0.05-0.379C19.157,12.093,19.32,12,19.501,12z M19.501,11
	c-0.518,0-1.023,0.269-1.3,0.75c-0.414,0.717-0.168,1.635,0.549,2.049C18.986,13.936,19.244,14,19.499,14
	c0.518,0,1.023-0.269,1.3-0.75c0.414-0.717,0.168-1.635-0.549-2.049C20.014,11.064,19.756,11,19.501,11L19.501,11z M15.5,6
	C9.701,6,5,10.701,5,16.5S9.701,27,15.5,27C21.299,27,26,22.299,26,16.5S21.299,6,15.5,6z M18.301,7.422
	C17.985,7.601,17.678,7.792,17.384,8h-6.101c1.273-0.634,2.701-1,4.217-1C16.475,7,17.415,7.148,18.301,7.422z M9.691,9h6.487
	c-0.326,0.314-0.634,0.646-0.916,1H8.591C8.931,9.639,9.298,9.305,9.691,9z M7.136,21h6.858c0.162,0.345,0.346,0.677,0.543,1H7.768
	C7.54,21.679,7.325,21.349,7.136,21z M6.677,20c-0.129-0.325-0.238-0.659-0.332-1h6.951c0.082,0.341,0.182,0.673,0.296,1H6.677z
	 M13.018,17c0.015,0.338,0.043,0.672,0.088,1H6.13c-0.052-0.328-0.087-0.662-0.105-1H13.018z M13.019,16H6.025
	c0.018-0.338,0.052-0.672,0.105-1h6.979C13.062,15.328,13.035,15.662,13.019,16z M13.301,14H6.345c0.093-0.341,0.202-0.675,0.332-1
	h6.926C13.487,13.327,13.384,13.659,13.301,14z M14.011,12H7.136c0.188-0.349,0.403-0.679,0.632-1h6.794
	C14.362,11.323,14.176,11.655,14.011,12z M8.591,23h6.635c0.279,0.354,0.583,0.686,0.906,1H9.691
	C9.298,23.695,8.931,23.361,8.591,23z M11.283,25h6.044c0.298,0.213,0.609,0.408,0.93,0.589C17.383,25.854,16.459,26,15.5,26
	C13.984,26,12.556,25.634,11.283,25z M19.503,25.104C16.229,23.616,14,20.339,14,16.5c0-3.833,2.263-7.099,5.536-8.587
	C22.759,9.434,25,12.706,25,16.5C25,20.307,22.744,23.589,19.503,25.104z"/>
</svg>